<?xml version="1.0" encoding="UTF-8" standalone="no"?>
<svg
   xmlns:dc="http://purl.org/dc/elements/1.1/"
   xmlns:cc="http://creativecommons.org/ns#"
   xmlns:rdf="http://www.w3.org/1999/02/22-rdf-syntax-ns#"
   xmlns:svg="http://www.w3.org/2000/svg"
   xmlns="http://www.w3.org/2000/svg"
   xmlns:sodipodi="http://sodipodi.sourceforge.net/DTD/sodipodi-0.dtd"
   xmlns:inkscape="http://www.inkscape.org/namespaces/inkscape"
   version="1.1"
   x="0px"
   y="0px"
   viewBox="0 0 91 113.75"
   enable-background="new 0 0 91 91"
   xml:space="preserve"
   id="svg2"
   inkscape:version="0.91 r13725"
   sodipodi:docname="noun_Scooter_444073.svg"><metadata
     id="metadata54"><rdf:RDF><cc:Work
         rdf:about=""><dc:format>image/svg+xml</dc:format><dc:type
           rdf:resource="http://purl.org/dc/dcmitype/StillImage" /></cc:Work></rdf:RDF></metadata><defs
     id="defs52" /><sodipodi:namedview
     pagecolor="#ffffff"
     bordercolor="#666666"
     borderopacity="1"
     objecttolerance="10"
     gridtolerance="10"
     guidetolerance="10"
     inkscape:pageopacity="0"
     inkscape:pageshadow="2"
     inkscape:window-width="1312"
     inkscape:window-height="866"
     id="namedview50"
     showgrid="false"
     inkscape:zoom="4.1494505"
     inkscape:cx="23.471057"
     inkscape:cy="39.474863"
     inkscape:window-x="80"
     inkscape:window-y="131"
     inkscape:window-maximized="0"
     inkscape:current-layer="svg2" /><g
     fill=""
     id="g4"><path   class="scootersvg"
       d="M78.27,57.714c-6.468,0-11.729,5.264-11.729,11.732c0,6.466,5.261,11.726,11.729,11.726c6.469,0,11.73-5.26,11.73-11.726   C90,62.978,84.738,57.714,78.27,57.714z M78.27,78.632c-5.066,0-9.189-4.121-9.189-9.186c0-5.068,4.123-9.191,9.189-9.191   c5.068,0,9.191,4.123,9.191,9.191C87.461,74.511,83.338,78.632,78.27,78.632z"
       id="path6" /><path
       d="M16.251,57.714c-6.469,0-11.731,5.264-11.731,11.732c0,6.466,5.263,11.726,11.731,11.726s11.73-5.26,11.73-11.726   C27.981,62.978,22.72,57.714,16.251,57.714z M16.251,78.632c-5.068,0-9.192-4.121-9.192-9.186c0-5.068,4.124-9.191,9.192-9.191   s9.191,4.123,9.191,9.191C25.442,74.511,21.319,78.632,16.251,78.632z"
       id="path8" /><path
       d="M78.27,63.315c-3.379,0-6.127,2.748-6.127,6.126c0,3.38,2.748,6.13,6.127,6.13c3.382,0,6.133-2.75,6.133-6.13   C84.402,66.063,81.651,63.315,78.27,63.315z M78.27,74.302c-2.679,0-4.857-2.181-4.857-4.86c0-2.678,2.179-4.856,4.857-4.856   c2.682,0,4.863,2.179,4.863,4.856C83.133,72.121,80.951,74.302,78.27,74.302z"
       id="path10" /><path
       d="M16.251,63.315c-3.38,0-6.129,2.748-6.129,6.126c0,3.38,2.749,6.13,6.129,6.13c3.379,0,6.127-2.75,6.127-6.13   C22.378,66.063,19.63,63.315,16.251,63.315z M16.251,74.302c-2.68,0-4.859-2.181-4.859-4.86c0-2.678,2.18-4.856,4.859-4.856   c2.679,0,4.857,2.179,4.857,4.856C21.108,72.121,18.93,74.302,16.251,74.302z"
       id="path12" /><rect
       x="73.098"
       y="15.267"
       transform="matrix(0.7121 0.7021 -0.7021 0.7121 32.3928 -47.189)"
       width="1.27"
       height="1.269"
       id="rect14" /><rect
       x="74.882"
       y="13.459"
       transform="matrix(0.7125 0.7017 -0.7017 0.7125 31.6025 -48.9382)"
       width="1.269"
       height="1.269"
       id="rect16" /><rect
       x="78.327"
       y="10.143"
       transform="matrix(0.7117 0.7025 -0.7025 0.7117 30.2125 -52.4125)"
       width="1.271"
       height="0.92"
       id="rect18" /><rect
       x="76.665"
       y="11.651"
       transform="matrix(0.7117 0.7025 -0.7025 0.7117 30.9163 -50.7602)"
       width="1.271"
       height="1.271"
       id="rect20" /><rect
       x="71.314"
       y="17.075"
       transform="matrix(0.7121 0.7021 -0.7021 0.7121 33.1486 -45.4158)"
       width="1.27"
       height="1.27"
       id="rect22" /><rect
       x="69.53"
       y="18.882"
       transform="matrix(0.7125 0.7017 -0.7017 0.7125 33.8694 -43.6228)"
       width="1.269"
       height="1.269"
       id="rect24" /><rect
       x="67.745"
       y="20.691"
       transform="matrix(0.7121 0.7021 -0.7021 0.7121 34.6598 -41.8694)"
       width="1.27"
       height="1.269"
       id="rect26" /><rect
       x="70.398"
       y="21.614"
       transform="matrix(-0.9724 0.2335 -0.2335 -0.9724 162.2537 25.2934)"
       width="18.463"
       height="1.271"
       id="rect28" /><rect
       x="82.798"
       y="30.98"
       transform="matrix(-0.2277 0.9737 -0.9737 -0.2277 133.2131 -42.4291)"
       width="1.27"
       height="1.271"
       id="rect30" /><rect
       x="77.851"
       y="29.825"
       transform="matrix(-0.2277 0.9737 -0.9737 -0.2277 126.0151 -39.0305)"
       width="1.27"
       height="1.27"
       id="rect32" /><rect
       x="85.272"
       y="31.557"
       transform="matrix(-0.2277 0.9737 -0.9737 -0.2277 136.8114 -44.1298)"
       width="1.27"
       height="1.27"
       id="rect34" /><rect
       x="80.325"
       y="30.402"
       transform="matrix(-0.2277 0.9737 -0.9737 -0.2277 129.6133 -40.7302)"
       width="1.27"
       height="1.271"
       id="rect36" /><rect
       x="70.431"
       y="28.093"
       transform="matrix(-0.9739 -0.2269 0.2269 -0.9739 133.7572 72.834)"
       width="1.269"
       height="1.27"
       id="rect38" /><rect
       x="72.904"
       y="28.67"
       transform="matrix(-0.2277 0.9737 -0.9737 -0.2277 118.8166 -35.6315)"
       width="1.27"
       height="1.27"
       id="rect40" /><rect
       x="75.378"
       y="29.248"
       transform="matrix(-0.2277 0.9737 -0.9737 -0.2277 122.4164 -37.3304)"
       width="1.27"
       height="1.27"
       id="rect42" /><path
       d="M69.167,58.032c4.998-3.976,9.044-2.57,11.273-3.029c2.232-0.461,3.305-1.081,0.151-5.078   c-3.154-4.004-15.307-17.771-15.307-17.771s0.744-0.86,1.211-2.081h-2.525c-1.29,0-2.334-1.045-2.334-2.334   c0-1.293,1.044-2.33,2.334-2.33h1.857c-1.329-1.813-3.671-3.363-5.077-3.945c-1.313-0.538-5.385,2.282-7.588,4.547h-6.809   c-0.95,0-1.722,0.773-1.722,1.729c0,0.961,0.771,1.732,1.722,1.732h5.923c2.044,3.905,8.979,15.394,9.331,16.68   c0.402,1.477-1.022,6.865-2.459,9.98c-1.429,3.131-5.019,3.682-7.924,3.139c-2.896-0.546-11.338-2.359-11.338-2.359   s1.739-3.891,3.104-6.65l0.663,0.158c0.147,0.035,0.297,0.052,0.442,0.052c0.663,0,1.293-0.347,1.64-0.935   c1.741-2.946,0.464-8.571-1.723-10.459c-2.308-2.01-18.201-4.795-24.421-5.144c-6.568-0.378-8.939,3.595-9.401,6.208l30.215,7.564   c0.34,0.084,0.546,0.43,0.461,0.77c-0.071,0.289-0.332,0.48-0.615,0.48c-0.052,0-0.104-0.006-0.156-0.02l-29.903-7.485   c0.003,0.007,0.004,0.016,0.007,0.023c-3.691,2.49-2.809,5.97,1.056,9.827l-8.011,6.098c-0.615,0.612-0.615,1.613,0,2.235   c0.625,0.616,1.626,0.616,2.24,0l8.14-6.229c1.147,0.935,6.986,1.43,11.114,4.445c2.556,1.867,5.334,5.388,5.492,11.11   c0.007,0.479-0.553,0.905,0.202,0.446c5.474-3.52,10.214-3.309,12.645-2.905c7.182,1.935,13.38,3.004,15.498,2.648   C63.348,68.362,64.174,62.014,69.167,58.032z"
       id="path44" /></g></svg>